<?xml version="1.0" encoding="utf-8" standalone="no"?>
<!DOCTYPE svg PUBLIC "-//W3C//DTD SVG 1.1//EN"
  "http://www.w3.org/Graphics/SVG/1.1/DTD/svg11.dtd">
<svg xmlns:xlink="http://www.w3.org/1999/xlink" width="497.99952pt" height="65.99952pt" viewBox="0 0 497.99952 65.99952" xmlns="http://www.w3.org/2000/svg" version="1.1">
 <metadata>
  <rdf:RDF xmlns:dc="http://purl.org/dc/elements/1.1/" xmlns:cc="http://creativecommons.org/ns#" xmlns:rdf="http://www.w3.org/1999/02/22-rdf-syntax-ns#">
   <cc:Work>
    <dc:type rdf:resource="http://purl.org/dc/dcmitype/StillImage"/>
    <dc:date>2025-07-07T19:06:43.862644</dc:date>
    <dc:format>image/svg+xml</dc:format>
    <dc:creator>
     <cc:Agent>
      <dc:title>Matplotlib v3.8.3, https://matplotlib.org/</dc:title>
     </cc:Agent>
    </dc:creator>
   </cc:Work>
  </rdf:RDF>
 </metadata>
 <defs>
  <style type="text/css">*{stroke-linejoin: round; stroke-linecap: butt}</style>
 </defs>
 <g id="figure_1">
  <g id="patch_1">
   <path d="M 0 65.99952 
L 497.99952 65.99952 
L 497.99952 0 
L 0 0 
L 0 65.99952 
z
" style="fill: none"/>
  </g>
  <g id="axes_1">
   <g id="patch_2">
    <path d="M 24.665 46.528739 
L 497.99952 46.528739 
L 497.99952 0 
L 24.665 0 
L 24.665 46.528739 
z
" style="fill: none"/>
   </g>
   <g id="matplotlib.axis_1">
    <g id="xtick_1">
     <g id="line2d_1">
      <defs>
       <path id="md93cd3624f" d="M 0 0 
L 0 2 
" style="stroke: #262626; stroke-width: 0.5"/>
      </defs>
      <g>
       <use xlink:href="#md93cd3624f" x="27.111173" y="46.528739" style="fill: #262626; stroke: #262626; stroke-width: 0.5"/>
      </g>
     </g>
     <g id="text_1">
      <!-- 0 -->
      <g style="fill: #262626" transform="translate(25.164845 57.039208) scale(0.07 -0.07)">
       <defs>
        <path id="ArialMT-30" d="M 266 2259 
Q 266 3072 433 3567 
Q 600 4063 929 4331 
Q 1259 4600 1759 4600 
Q 2128 4600 2406 4451 
Q 2684 4303 2865 4023 
Q 3047 3744 3150 3342 
Q 3253 2941 3253 2259 
Q 3253 1453 3087 958 
Q 2922 463 2592 192 
Q 2263 -78 1759 -78 
Q 1097 -78 719 397 
Q 266 969 266 2259 
z
M 844 2259 
Q 844 1131 1108 757 
Q 1372 384 1759 384 
Q 2147 384 2411 759 
Q 2675 1134 2675 2259 
Q 2675 3391 2411 3762 
Q 2147 4134 1753 4134 
Q 1366 4134 1134 3806 
Q 844 3388 844 2259 
z
" transform="scale(0.015625)"/>
       </defs>
       <use xlink:href="#ArialMT-30"/>
      </g>
     </g>
    </g>
    <g id="xtick_2">
     <g id="line2d_2">
      <g>
       <use xlink:href="#md93cd3624f" x="124.958102" y="46.528739" style="fill: #262626; stroke: #262626; stroke-width: 0.5"/>
      </g>
     </g>
     <g id="text_2">
      <!-- 200 -->
      <g style="fill: #262626" transform="translate(119.119118 57.039208) scale(0.07 -0.07)">
       <defs>
        <path id="ArialMT-32" d="M 3222 541 
L 3222 0 
L 194 0 
Q 188 203 259 391 
Q 375 700 629 1000 
Q 884 1300 1366 1694 
Q 2113 2306 2375 2664 
Q 2638 3022 2638 3341 
Q 2638 3675 2398 3904 
Q 2159 4134 1775 4134 
Q 1369 4134 1125 3890 
Q 881 3647 878 3216 
L 300 3275 
Q 359 3922 746 4261 
Q 1134 4600 1788 4600 
Q 2447 4600 2831 4234 
Q 3216 3869 3216 3328 
Q 3216 3053 3103 2787 
Q 2991 2522 2730 2228 
Q 2469 1934 1863 1422 
Q 1356 997 1212 845 
Q 1069 694 975 541 
L 3222 541 
z
" transform="scale(0.015625)"/>
       </defs>
       <use xlink:href="#ArialMT-32"/>
       <use xlink:href="#ArialMT-30" x="55.615234"/>
       <use xlink:href="#ArialMT-30" x="111.230469"/>
      </g>
     </g>
    </g>
    <g id="xtick_3">
     <g id="line2d_3">
      <g>
       <use xlink:href="#md93cd3624f" x="222.805032" y="46.528739" style="fill: #262626; stroke: #262626; stroke-width: 0.5"/>
      </g>
     </g>
     <g id="text_3">
      <!-- 400 -->
      <g style="fill: #262626" transform="translate(216.966047 57.039208) scale(0.07 -0.07)">
       <defs>
        <path id="ArialMT-34" d="M 2069 0 
L 2069 1097 
L 81 1097 
L 81 1613 
L 2172 4581 
L 2631 4581 
L 2631 1613 
L 3250 1613 
L 3250 1097 
L 2631 1097 
L 2631 0 
L 2069 0 
z
M 2069 1613 
L 2069 3678 
L 634 1613 
L 2069 1613 
z
" transform="scale(0.015625)"/>
       </defs>
       <use xlink:href="#ArialMT-34"/>
       <use xlink:href="#ArialMT-30" x="55.615234"/>
       <use xlink:href="#ArialMT-30" x="111.230469"/>
      </g>
     </g>
    </g>
    <g id="xtick_4">
     <g id="line2d_4">
      <g>
       <use xlink:href="#md93cd3624f" x="320.651961" y="46.528739" style="fill: #262626; stroke: #262626; stroke-width: 0.5"/>
      </g>
     </g>
     <g id="text_4">
      <!-- 600 -->
      <g style="fill: #262626" transform="translate(314.812976 57.039208) scale(0.07 -0.07)">
       <defs>
        <path id="ArialMT-36" d="M 3184 3459 
L 2625 3416 
Q 2550 3747 2413 3897 
Q 2184 4138 1850 4138 
Q 1581 4138 1378 3988 
Q 1113 3794 959 3422 
Q 806 3050 800 2363 
Q 1003 2672 1297 2822 
Q 1591 2972 1913 2972 
Q 2475 2972 2870 2558 
Q 3266 2144 3266 1488 
Q 3266 1056 3080 686 
Q 2894 316 2569 119 
Q 2244 -78 1831 -78 
Q 1128 -78 684 439 
Q 241 956 241 2144 
Q 241 3472 731 4075 
Q 1159 4600 1884 4600 
Q 2425 4600 2770 4297 
Q 3116 3994 3184 3459 
z
M 888 1484 
Q 888 1194 1011 928 
Q 1134 663 1356 523 
Q 1578 384 1822 384 
Q 2178 384 2434 671 
Q 2691 959 2691 1453 
Q 2691 1928 2437 2201 
Q 2184 2475 1800 2475 
Q 1419 2475 1153 2201 
Q 888 1928 888 1484 
z
" transform="scale(0.015625)"/>
       </defs>
       <use xlink:href="#ArialMT-36"/>
       <use xlink:href="#ArialMT-30" x="55.615234"/>
       <use xlink:href="#ArialMT-30" x="111.230469"/>
      </g>
     </g>
    </g>
    <g id="xtick_5">
     <g id="line2d_5">
      <g>
       <use xlink:href="#md93cd3624f" x="418.49889" y="46.528739" style="fill: #262626; stroke: #262626; stroke-width: 0.5"/>
      </g>
     </g>
     <g id="text_5">
      <!-- 800 -->
      <g style="fill: #262626" transform="translate(412.659906 57.039208) scale(0.07 -0.07)">
       <defs>
        <path id="ArialMT-38" d="M 1131 2484 
Q 781 2613 612 2850 
Q 444 3088 444 3419 
Q 444 3919 803 4259 
Q 1163 4600 1759 4600 
Q 2359 4600 2725 4251 
Q 3091 3903 3091 3403 
Q 3091 3084 2923 2848 
Q 2756 2613 2416 2484 
Q 2838 2347 3058 2040 
Q 3278 1734 3278 1309 
Q 3278 722 2862 322 
Q 2447 -78 1769 -78 
Q 1091 -78 675 323 
Q 259 725 259 1325 
Q 259 1772 486 2073 
Q 713 2375 1131 2484 
z
M 1019 3438 
Q 1019 3113 1228 2906 
Q 1438 2700 1772 2700 
Q 2097 2700 2305 2904 
Q 2513 3109 2513 3406 
Q 2513 3716 2298 3927 
Q 2084 4138 1766 4138 
Q 1444 4138 1231 3931 
Q 1019 3725 1019 3438 
z
M 838 1322 
Q 838 1081 952 856 
Q 1066 631 1291 507 
Q 1516 384 1775 384 
Q 2178 384 2440 643 
Q 2703 903 2703 1303 
Q 2703 1709 2433 1975 
Q 2163 2241 1756 2241 
Q 1359 2241 1098 1978 
Q 838 1716 838 1322 
z
" transform="scale(0.015625)"/>
       </defs>
       <use xlink:href="#ArialMT-38"/>
       <use xlink:href="#ArialMT-30" x="55.615234"/>
       <use xlink:href="#ArialMT-30" x="111.230469"/>
      </g>
     </g>
    </g>
    <g id="text_6">
     <!-- Time(s) -->
     <g style="fill: #262626" transform="translate(249.605619 64.526239) scale(0.07 -0.07)">
      <defs>
       <path id="ArialMT-54" d="M 1659 0 
L 1659 4041 
L 150 4041 
L 150 4581 
L 3781 4581 
L 3781 4041 
L 2266 4041 
L 2266 0 
L 1659 0 
z
" transform="scale(0.015625)"/>
       <path id="ArialMT-69" d="M 425 3934 
L 425 4581 
L 988 4581 
L 988 3934 
L 425 3934 
z
M 425 0 
L 425 3319 
L 988 3319 
L 988 0 
L 425 0 
z
" transform="scale(0.015625)"/>
       <path id="ArialMT-6d" d="M 422 0 
L 422 3319 
L 925 3319 
L 925 2853 
Q 1081 3097 1340 3245 
Q 1600 3394 1931 3394 
Q 2300 3394 2536 3241 
Q 2772 3088 2869 2813 
Q 3263 3394 3894 3394 
Q 4388 3394 4653 3120 
Q 4919 2847 4919 2278 
L 4919 0 
L 4359 0 
L 4359 2091 
Q 4359 2428 4304 2576 
Q 4250 2725 4106 2815 
Q 3963 2906 3769 2906 
Q 3419 2906 3187 2673 
Q 2956 2441 2956 1928 
L 2956 0 
L 2394 0 
L 2394 2156 
Q 2394 2531 2256 2718 
Q 2119 2906 1806 2906 
Q 1569 2906 1367 2781 
Q 1166 2656 1075 2415 
Q 984 2175 984 1722 
L 984 0 
L 422 0 
z
" transform="scale(0.015625)"/>
       <path id="ArialMT-65" d="M 2694 1069 
L 3275 997 
Q 3138 488 2766 206 
Q 2394 -75 1816 -75 
Q 1088 -75 661 373 
Q 234 822 234 1631 
Q 234 2469 665 2931 
Q 1097 3394 1784 3394 
Q 2450 3394 2872 2941 
Q 3294 2488 3294 1666 
Q 3294 1616 3291 1516 
L 816 1516 
Q 847 969 1125 678 
Q 1403 388 1819 388 
Q 2128 388 2347 550 
Q 2566 713 2694 1069 
z
M 847 1978 
L 2700 1978 
Q 2663 2397 2488 2606 
Q 2219 2931 1791 2931 
Q 1403 2931 1139 2672 
Q 875 2413 847 1978 
z
" transform="scale(0.015625)"/>
       <path id="ArialMT-28" d="M 1497 -1347 
Q 1031 -759 709 28 
Q 388 816 388 1659 
Q 388 2403 628 3084 
Q 909 3875 1497 4659 
L 1900 4659 
Q 1522 4009 1400 3731 
Q 1209 3300 1100 2831 
Q 966 2247 966 1656 
Q 966 153 1900 -1347 
L 1497 -1347 
z
" transform="scale(0.015625)"/>
       <path id="ArialMT-73" d="M 197 991 
L 753 1078 
Q 800 744 1014 566 
Q 1228 388 1613 388 
Q 2000 388 2187 545 
Q 2375 703 2375 916 
Q 2375 1106 2209 1216 
Q 2094 1291 1634 1406 
Q 1016 1563 777 1677 
Q 538 1791 414 1992 
Q 291 2194 291 2438 
Q 291 2659 392 2848 
Q 494 3038 669 3163 
Q 800 3259 1026 3326 
Q 1253 3394 1513 3394 
Q 1903 3394 2198 3281 
Q 2494 3169 2634 2976 
Q 2775 2784 2828 2463 
L 2278 2388 
Q 2241 2644 2061 2787 
Q 1881 2931 1553 2931 
Q 1166 2931 1000 2803 
Q 834 2675 834 2503 
Q 834 2394 903 2306 
Q 972 2216 1119 2156 
Q 1203 2125 1616 2013 
Q 2213 1853 2448 1751 
Q 2684 1650 2818 1456 
Q 2953 1263 2953 975 
Q 2953 694 2789 445 
Q 2625 197 2315 61 
Q 2006 -75 1616 -75 
Q 969 -75 630 194 
Q 291 463 197 991 
z
" transform="scale(0.015625)"/>
       <path id="ArialMT-29" d="M 791 -1347 
L 388 -1347 
Q 1322 153 1322 1656 
Q 1322 2244 1188 2822 
Q 1081 3291 891 3722 
Q 769 4003 388 4659 
L 791 4659 
Q 1378 3875 1659 3084 
Q 1900 2403 1900 1659 
Q 1900 816 1576 28 
Q 1253 -759 791 -1347 
z
" transform="scale(0.015625)"/>
      </defs>
      <use xlink:href="#ArialMT-54"/>
      <use xlink:href="#ArialMT-69" x="57.333984"/>
      <use xlink:href="#ArialMT-6d" x="79.550781"/>
      <use xlink:href="#ArialMT-65" x="162.851562"/>
      <use xlink:href="#ArialMT-28" x="218.466797"/>
      <use xlink:href="#ArialMT-73" x="251.767578"/>
      <use xlink:href="#ArialMT-29" x="301.767578"/>
     </g>
    </g>
   </g>
   <g id="matplotlib.axis_2">
    <g id="ytick_1">
     <g id="line2d_6">
      <defs>
       <path id="mc9c62b899f" d="M 0 0 
L -2 0 
" style="stroke: #262626; stroke-width: 0.5"/>
      </defs>
      <g>
       <use xlink:href="#mc9c62b899f" x="24.665" y="44.507498" style="fill: #262626; stroke: #262626; stroke-width: 0.5"/>
      </g>
     </g>
     <g id="text_7">
      <!-- 80 -->
      <g style="fill: #262626" transform="translate(11.379688 47.012733) scale(0.07 -0.07)">
       <use xlink:href="#ArialMT-38"/>
       <use xlink:href="#ArialMT-30" x="55.615234"/>
      </g>
     </g>
    </g>
    <g id="ytick_2">
     <g id="line2d_7">
      <g>
       <use xlink:href="#mc9c62b899f" x="24.665" y="25.529829" style="fill: #262626; stroke: #262626; stroke-width: 0.5"/>
      </g>
     </g>
     <g id="text_8">
      <!-- 100 -->
      <g style="fill: #262626" transform="translate(7.487031 28.035063) scale(0.07 -0.07)">
       <defs>
        <path id="ArialMT-31" d="M 2384 0 
L 1822 0 
L 1822 3584 
Q 1619 3391 1289 3197 
Q 959 3003 697 2906 
L 697 3450 
Q 1169 3672 1522 3987 
Q 1875 4303 2022 4600 
L 2384 4600 
L 2384 0 
z
" transform="scale(0.015625)"/>
       </defs>
       <use xlink:href="#ArialMT-31"/>
       <use xlink:href="#ArialMT-30" x="55.615234"/>
       <use xlink:href="#ArialMT-30" x="111.230469"/>
      </g>
     </g>
    </g>
    <g id="ytick_3">
     <g id="line2d_8">
      <g>
       <use xlink:href="#mc9c62b899f" x="24.665" y="6.552159" style="fill: #262626; stroke: #262626; stroke-width: 0.5"/>
      </g>
     </g>
     <g id="text_9">
      <!-- 120 -->
      <g style="fill: #262626" transform="translate(7.487031 9.057393) scale(0.07 -0.07)">
       <use xlink:href="#ArialMT-31"/>
       <use xlink:href="#ArialMT-32" x="55.615234"/>
       <use xlink:href="#ArialMT-30" x="111.230469"/>
      </g>
     </g>
    </g>
    <g id="text_10">
     <!-- Spike Count -->
     <g style="fill: #262626" transform="translate(5.095781 42.330619) rotate(-90) scale(0.07 -0.07)">
      <defs>
       <path id="ArialMT-53" d="M 288 1472 
L 859 1522 
Q 900 1178 1048 958 
Q 1197 738 1509 602 
Q 1822 466 2213 466 
Q 2559 466 2825 569 
Q 3091 672 3220 851 
Q 3350 1031 3350 1244 
Q 3350 1459 3225 1620 
Q 3100 1781 2813 1891 
Q 2628 1963 1997 2114 
Q 1366 2266 1113 2400 
Q 784 2572 623 2826 
Q 463 3081 463 3397 
Q 463 3744 659 4045 
Q 856 4347 1234 4503 
Q 1613 4659 2075 4659 
Q 2584 4659 2973 4495 
Q 3363 4331 3572 4012 
Q 3781 3694 3797 3291 
L 3216 3247 
Q 3169 3681 2898 3903 
Q 2628 4125 2100 4125 
Q 1550 4125 1298 3923 
Q 1047 3722 1047 3438 
Q 1047 3191 1225 3031 
Q 1400 2872 2139 2705 
Q 2878 2538 3153 2413 
Q 3553 2228 3743 1945 
Q 3934 1663 3934 1294 
Q 3934 928 3725 604 
Q 3516 281 3123 101 
Q 2731 -78 2241 -78 
Q 1619 -78 1198 103 
Q 778 284 539 648 
Q 300 1013 288 1472 
z
" transform="scale(0.015625)"/>
       <path id="ArialMT-70" d="M 422 -1272 
L 422 3319 
L 934 3319 
L 934 2888 
Q 1116 3141 1344 3267 
Q 1572 3394 1897 3394 
Q 2322 3394 2647 3175 
Q 2972 2956 3137 2557 
Q 3303 2159 3303 1684 
Q 3303 1175 3120 767 
Q 2938 359 2589 142 
Q 2241 -75 1856 -75 
Q 1575 -75 1351 44 
Q 1128 163 984 344 
L 984 -1272 
L 422 -1272 
z
M 931 1641 
Q 931 1000 1190 694 
Q 1450 388 1819 388 
Q 2194 388 2461 705 
Q 2728 1022 2728 1688 
Q 2728 2322 2467 2637 
Q 2206 2953 1844 2953 
Q 1484 2953 1207 2617 
Q 931 2281 931 1641 
z
" transform="scale(0.015625)"/>
       <path id="ArialMT-6b" d="M 425 0 
L 425 4581 
L 988 4581 
L 988 1969 
L 2319 3319 
L 3047 3319 
L 1778 2088 
L 3175 0 
L 2481 0 
L 1384 1697 
L 988 1316 
L 988 0 
L 425 0 
z
" transform="scale(0.015625)"/>
       <path id="ArialMT-20" transform="scale(0.015625)"/>
       <path id="ArialMT-43" d="M 3763 1606 
L 4369 1453 
Q 4178 706 3683 314 
Q 3188 -78 2472 -78 
Q 1731 -78 1267 223 
Q 803 525 561 1097 
Q 319 1669 319 2325 
Q 319 3041 592 3573 
Q 866 4106 1370 4382 
Q 1875 4659 2481 4659 
Q 3169 4659 3637 4309 
Q 4106 3959 4291 3325 
L 3694 3184 
Q 3534 3684 3231 3912 
Q 2928 4141 2469 4141 
Q 1941 4141 1586 3887 
Q 1231 3634 1087 3207 
Q 944 2781 944 2328 
Q 944 1744 1114 1308 
Q 1284 872 1643 656 
Q 2003 441 2422 441 
Q 2931 441 3284 734 
Q 3638 1028 3763 1606 
z
" transform="scale(0.015625)"/>
       <path id="ArialMT-6f" d="M 213 1659 
Q 213 2581 725 3025 
Q 1153 3394 1769 3394 
Q 2453 3394 2887 2945 
Q 3322 2497 3322 1706 
Q 3322 1066 3130 698 
Q 2938 331 2570 128 
Q 2203 -75 1769 -75 
Q 1072 -75 642 372 
Q 213 819 213 1659 
z
M 791 1659 
Q 791 1022 1069 705 
Q 1347 388 1769 388 
Q 2188 388 2466 706 
Q 2744 1025 2744 1678 
Q 2744 2294 2464 2611 
Q 2184 2928 1769 2928 
Q 1347 2928 1069 2612 
Q 791 2297 791 1659 
z
" transform="scale(0.015625)"/>
       <path id="ArialMT-75" d="M 2597 0 
L 2597 488 
Q 2209 -75 1544 -75 
Q 1250 -75 995 37 
Q 741 150 617 320 
Q 494 491 444 738 
Q 409 903 409 1263 
L 409 3319 
L 972 3319 
L 972 1478 
Q 972 1038 1006 884 
Q 1059 663 1231 536 
Q 1403 409 1656 409 
Q 1909 409 2131 539 
Q 2353 669 2445 892 
Q 2538 1116 2538 1541 
L 2538 3319 
L 3100 3319 
L 3100 0 
L 2597 0 
z
" transform="scale(0.015625)"/>
       <path id="ArialMT-6e" d="M 422 0 
L 422 3319 
L 928 3319 
L 928 2847 
Q 1294 3394 1984 3394 
Q 2284 3394 2536 3286 
Q 2788 3178 2913 3003 
Q 3038 2828 3088 2588 
Q 3119 2431 3119 2041 
L 3119 0 
L 2556 0 
L 2556 2019 
Q 2556 2363 2490 2533 
Q 2425 2703 2258 2804 
Q 2091 2906 1866 2906 
Q 1506 2906 1245 2678 
Q 984 2450 984 1813 
L 984 0 
L 422 0 
z
" transform="scale(0.015625)"/>
       <path id="ArialMT-74" d="M 1650 503 
L 1731 6 
Q 1494 -44 1306 -44 
Q 1000 -44 831 53 
Q 663 150 594 308 
Q 525 466 525 972 
L 525 2881 
L 113 2881 
L 113 3319 
L 525 3319 
L 525 4141 
L 1084 4478 
L 1084 3319 
L 1650 3319 
L 1650 2881 
L 1084 2881 
L 1084 941 
Q 1084 700 1114 631 
Q 1144 563 1211 522 
Q 1278 481 1403 481 
Q 1497 481 1650 503 
z
" transform="scale(0.015625)"/>
      </defs>
      <use xlink:href="#ArialMT-53"/>
      <use xlink:href="#ArialMT-70" x="66.699219"/>
      <use xlink:href="#ArialMT-69" x="122.314453"/>
      <use xlink:href="#ArialMT-6b" x="144.53125"/>
      <use xlink:href="#ArialMT-65" x="194.53125"/>
      <use xlink:href="#ArialMT-20" x="250.146484"/>
      <use xlink:href="#ArialMT-43" x="277.929688"/>
      <use xlink:href="#ArialMT-6f" x="350.146484"/>
      <use xlink:href="#ArialMT-75" x="405.761719"/>
      <use xlink:href="#ArialMT-6e" x="461.376953"/>
      <use xlink:href="#ArialMT-74" x="516.992188"/>
     </g>
    </g>
   </g>
   <g id="PolyCollection_1">
    <defs>
     <path id="m75dbe5aee5" d="M 351.229126 -45.127042 
L 351.229126 -40.226302 
L 353.675299 -40.266325 
L 356.121473 -40.309812 
L 358.567646 -40.47739 
L 361.013819 -40.65709 
L 363.459992 -40.971656 
L 365.906166 -41.382984 
L 368.352339 -41.809129 
L 370.798512 -42.206456 
L 373.244685 -42.552059 
L 375.690859 -42.823336 
L 378.137032 -42.931633 
L 380.583205 -42.953512 
L 383.029378 -42.818988 
L 385.475551 -42.551417 
L 387.921725 -42.145242 
L 390.367898 -41.681833 
L 392.814071 -41.114783 
L 395.260244 -40.583961 
L 397.706418 -39.98457 
L 400.152591 -39.391385 
L 402.598764 -38.931999 
L 405.044937 -38.593414 
L 407.49111 -38.078121 
L 409.937284 -37.852788 
L 412.383457 -37.723093 
L 414.82963 -37.571626 
L 417.275803 -37.483127 
L 419.721977 -37.421501 
L 422.16815 -37.46211 
L 424.614323 -37.609472 
L 427.060496 -38.000838 
L 429.50667 -38.48871 
L 431.952843 -39.040549 
L 434.399016 -39.686689 
L 436.845189 -39.999536 
L 439.291362 -40.210983 
L 441.737536 -40.442778 
L 444.183709 -40.675995 
L 446.629882 -40.901709 
L 449.076055 -41.077121 
L 451.522229 -41.209157 
L 453.968402 -41.45731 
L 456.414575 -41.777771 
L 458.860748 -41.902613 
L 461.306922 -42.087552 
L 463.753095 -42.31718 
L 466.199268 -42.503843 
L 468.645441 -42.605381 
L 471.091614 -42.653276 
L 473.537788 -42.159807 
L 475.983961 -42.055637 
L 478.430134 -41.587543 
L 480.876307 -41.144135 
L 483.322481 -40.727181 
L 485.768654 -40.400741 
L 488.214827 -40.121512 
L 490.661 -39.937021 
L 493.107174 -39.84085 
L 495.553347 -39.826315 
L 495.553347 -46.125809 
L 495.553347 -46.125809 
L 493.107174 -46.422109 
L 490.661 -46.663615 
L 488.214827 -46.872105 
L 485.768654 -47.220801 
L 483.322481 -47.559357 
L 480.876307 -47.868198 
L 478.430134 -48.053404 
L 475.983961 -48.124174 
L 473.537788 -48.092101 
L 471.091614 -47.948976 
L 468.645441 -47.715512 
L 466.199268 -47.390567 
L 463.753095 -46.984995 
L 461.306922 -46.551622 
L 458.860748 -46.16858 
L 456.414575 -45.919133 
L 453.968402 -45.662554 
L 451.522229 -45.54002 
L 449.076055 -45.367596 
L 446.629882 -45.177807 
L 444.183709 -44.95035 
L 441.737536 -44.701114 
L 439.291362 -44.540559 
L 436.845189 -44.198409 
L 434.399016 -43.749028 
L 431.952843 -43.550878 
L 429.50667 -43.289022 
L 427.060496 -42.984738 
L 424.614323 -42.636113 
L 422.16815 -42.275134 
L 419.721977 -41.968574 
L 417.275803 -41.844633 
L 414.82963 -41.973097 
L 412.383457 -42.183413 
L 409.937284 -42.462203 
L 407.49111 -42.829936 
L 405.044937 -43.143754 
L 402.598764 -43.495409 
L 400.152591 -44.050583 
L 397.706418 -44.659756 
L 395.260244 -45.19754 
L 392.814071 -45.588118 
L 390.367898 -45.959531 
L 387.921725 -46.263336 
L 385.475551 -46.549423 
L 383.029378 -46.593857 
L 380.583205 -46.477593 
L 378.137032 -46.509989 
L 375.690859 -46.58553 
L 373.244685 -46.478163 
L 370.798512 -46.4013 
L 368.352339 -46.335017 
L 365.906166 -46.29533 
L 363.459992 -46.247715 
L 361.013819 -46.053432 
L 358.567646 -45.838095 
L 356.121473 -45.6154 
L 353.675299 -45.418873 
L 351.229126 -45.127042 
z
" style="stroke: #708090; stroke-opacity: 0.4"/>
    </defs>
    <g clip-path="url(#pd299b8df53)">
     <use xlink:href="#m75dbe5aee5" x="0" y="65.99952" style="fill: #708090; fill-opacity: 0.4; stroke: #708090; stroke-opacity: 0.4"/>
    </g>
   </g>
   <g id="PolyCollection_2">
    <defs>
     <path id="m87c9ec730b" d="M 28.33426 -46.862292 
L 28.33426 -42.806749 
L 30.780433 -42.860306 
L 33.226606 -42.796319 
L 35.67278 -42.623964 
L 38.118953 -42.309718 
L 40.565126 -41.915519 
L 43.011299 -41.480911 
L 45.457472 -41.069585 
L 47.903646 -40.643274 
L 50.349819 -40.082672 
L 52.795992 -39.61927 
L 55.242165 -39.22614 
L 57.688339 -38.940878 
L 60.134512 -38.575185 
L 62.580685 -38.227261 
L 65.026858 -37.987222 
L 67.473032 -37.850572 
L 69.919205 -37.88909 
L 72.365378 -37.982482 
L 74.811551 -38.168477 
L 77.257724 -38.360051 
L 79.703898 -38.590516 
L 82.150071 -38.90979 
L 84.596244 -39.452234 
L 87.042417 -39.991409 
L 89.488591 -40.478638 
L 91.934764 -40.828609 
L 94.380937 -41.013809 
L 96.82711 -41.196428 
L 99.273284 -41.503517 
L 101.719457 -41.777789 
L 104.16563 -41.965133 
L 106.611803 -42.031826 
L 109.057976 -42.15507 
L 111.50415 -42.16672 
L 113.950323 -42.117548 
L 116.396496 -42.007641 
L 118.842669 -41.862033 
L 121.288843 -41.861436 
L 123.735016 -41.592395 
L 126.181189 -41.318313 
L 128.627362 -40.979807 
L 131.073536 -40.575159 
L 133.519709 -40.186474 
L 135.965882 -39.843654 
L 138.412055 -39.554076 
L 140.858228 -39.34557 
L 143.304402 -39.267956 
L 145.750575 -39.288619 
L 148.196748 -39.392493 
L 150.642921 -39.597508 
L 153.089095 -39.876549 
L 155.535268 -39.993631 
L 157.981441 -40.050367 
L 160.427614 -40.091071 
L 162.873787 -40.143817 
L 165.319961 -40.144 
L 167.766134 -40.184695 
L 170.212307 -40.267801 
L 172.65848 -40.422633 
L 175.104654 -40.536054 
L 177.550827 -40.590243 
L 179.997 -40.811852 
L 182.443173 -40.883189 
L 184.889347 -40.888539 
L 187.33552 -41.095186 
L 189.781693 -41.381345 
L 192.227866 -41.544308 
L 194.674039 -41.675974 
L 197.120213 -42.068318 
L 199.566386 -42.470733 
L 202.012559 -42.761521 
L 204.458732 -42.846047 
L 206.904906 -42.833907 
L 209.351079 -42.693164 
L 211.797252 -42.372445 
L 214.243425 -42.015139 
L 216.689599 -41.613558 
L 219.135772 -41.178332 
L 221.581945 -40.733396 
L 224.028118 -40.218153 
L 226.474291 -39.738655 
L 228.920465 -39.320373 
L 231.366638 -38.997153 
L 233.812811 -38.658856 
L 236.258984 -38.317003 
L 238.705158 -38.041424 
L 241.151331 -37.886232 
L 243.597504 -37.867682 
L 246.043677 -37.944569 
L 248.489851 -38.118682 
L 250.936024 -38.321982 
L 253.382197 -38.540129 
L 255.82837 -38.812012 
L 258.274543 -39.307099 
L 260.720717 -39.852642 
L 263.16689 -40.352816 
L 265.613063 -40.79052 
L 268.059236 -40.977599 
L 270.50541 -41.152311 
L 272.951583 -41.457819 
L 275.397756 -41.692744 
L 277.843929 -41.947539 
L 280.290103 -41.983021 
L 282.736276 -42.167949 
L 285.182449 -42.177003 
L 287.628622 -42.148882 
L 290.074795 -42.039974 
L 292.520969 -41.889603 
L 294.967142 -41.856267 
L 297.413315 -41.649451 
L 299.859488 -41.394254 
L 302.305662 -41.072841 
L 304.751835 -40.67517 
L 307.198008 -40.271752 
L 309.644181 -39.903713 
L 312.090355 -39.624049 
L 314.536528 -39.379888 
L 316.982701 -39.257582 
L 319.428874 -39.32738 
L 321.875047 -39.340478 
L 324.321221 -39.548748 
L 326.767394 -39.820811 
L 329.213567 -39.994539 
L 331.65974 -40.031867 
L 334.105914 -40.073529 
L 336.552087 -40.134525 
L 338.99826 -40.141055 
L 341.444433 -40.168178 
L 343.890607 -40.242518 
L 346.33678 -40.405891 
L 348.782953 -40.51659 
L 348.782953 -45.008121 
L 348.782953 -45.008121 
L 346.33678 -45.052872 
L 343.890607 -45.081609 
L 341.444433 -45.070091 
L 338.99826 -45.258234 
L 336.552087 -45.278705 
L 334.105914 -45.255374 
L 331.65974 -45.351962 
L 329.213567 -45.703554 
L 326.767394 -46.086945 
L 324.321221 -46.505343 
L 321.875047 -46.870058 
L 319.428874 -47.150456 
L 316.982701 -47.345316 
L 314.536528 -47.388693 
L 312.090355 -47.35106 
L 309.644181 -47.244073 
L 307.198008 -47.169238 
L 304.751835 -47.077611 
L 302.305662 -46.961413 
L 299.859488 -46.868464 
L 297.413315 -46.872732 
L 294.967142 -46.745266 
L 292.520969 -46.66797 
L 290.074795 -46.737485 
L 287.628622 -46.875823 
L 285.182449 -46.900513 
L 282.736276 -46.827007 
L 280.290103 -46.637627 
L 277.843929 -46.345671 
L 275.397756 -46.011811 
L 272.951583 -45.604436 
L 270.50541 -45.267251 
L 268.059236 -44.904434 
L 265.613063 -44.578341 
L 263.16689 -44.367055 
L 260.720717 -44.137074 
L 258.274543 -43.863501 
L 255.82837 -43.517144 
L 253.382197 -43.14676 
L 250.936024 -42.800004 
L 248.489851 -42.504583 
L 246.043677 -42.213529 
L 243.597504 -41.986745 
L 241.151331 -41.99094 
L 238.705158 -42.200491 
L 236.258984 -42.45152 
L 233.812811 -42.667194 
L 231.366638 -42.851523 
L 228.920465 -43.033461 
L 226.474291 -43.283599 
L 224.028118 -44.060615 
L 221.581945 -44.499926 
L 219.135772 -44.797373 
L 216.689599 -45.148808 
L 214.243425 -45.506494 
L 211.797252 -45.921165 
L 209.351079 -46.281615 
L 206.904906 -46.601936 
L 204.458732 -46.843182 
L 202.012559 -46.886505 
L 199.566386 -46.854851 
L 197.120213 -46.682088 
L 194.674039 -46.424794 
L 192.227866 -46.086528 
L 189.781693 -45.704221 
L 187.33552 -45.32229 
L 184.889347 -45.119375 
L 182.443173 -45.100541 
L 179.997 -44.961866 
L 177.550827 -44.954638 
L 175.104654 -44.99062 
L 172.65848 -45.053719 
L 170.212307 -45.084245 
L 167.766134 -45.063818 
L 165.319961 -45.18841 
L 162.873787 -45.287249 
L 160.427614 -45.271903 
L 157.981441 -45.303578 
L 155.535268 -45.636581 
L 153.089095 -45.987707 
L 150.642921 -46.397327 
L 148.196748 -46.77212 
L 145.750575 -47.079108 
L 143.304402 -47.305395 
L 140.858228 -47.397447 
L 138.412055 -47.356217 
L 135.965882 -47.287103 
L 133.519709 -47.172451 
L 131.073536 -47.113467 
L 128.627362 -46.982958 
L 126.181189 -46.883597 
L 123.735016 -46.866027 
L 121.288843 -46.766844 
L 118.842669 -46.690942 
L 116.396496 -46.702074 
L 113.950323 -46.841319 
L 111.50415 -46.898798 
L 109.057976 -46.853451 
L 106.611803 -46.692798 
L 104.16563 -46.442156 
L 101.719457 -46.095672 
L 99.273284 -45.70995 
L 96.82711 -45.330622 
L 94.380937 -45.004556 
L 91.934764 -44.636473 
L 89.488591 -44.417321 
L 87.042417 -44.191549 
L 84.596244 -43.923328 
L 82.150071 -43.615122 
L 79.703898 -43.254334 
L 77.257724 -42.864334 
L 74.811551 -42.566156 
L 72.365378 -42.279001 
L 69.919205 -42.043581 
L 67.473032 -41.95082 
L 65.026858 -42.147587 
L 62.580685 -42.39135 
L 60.134512 -42.625488 
L 57.688339 -42.796229 
L 55.242165 -42.973536 
L 52.795992 -43.199366 
L 50.349819 -43.843137 
L 47.903646 -44.41607 
L 45.457472 -44.716505 
L 43.011299 -45.04774 
L 40.565126 -45.415299 
L 38.118953 -45.816755 
L 35.67278 -46.180211 
L 33.226606 -46.542064 
L 30.780433 -46.794332 
L 28.33426 -46.862292 
z
" style="stroke: #708090; stroke-opacity: 0.4"/>
    </defs>
    <g clip-path="url(#pd299b8df53)">
     <use xlink:href="#m87c9ec730b" x="0" y="65.99952" style="fill: #708090; fill-opacity: 0.4; stroke: #708090; stroke-opacity: 0.4"/>
    </g>
   </g>
   <g id="PolyCollection_3">
    <defs>
     <path id="mf2e55dd5f8" d="M 351.229126 -55.438328 
L 351.229126 -31.194355 
L 353.675299 -26.449938 
L 356.121473 -30.980856 
L 358.567646 -31.194355 
L 361.013819 -32.143239 
L 363.459992 -29.296588 
L 365.906166 -33.305621 
L 368.352339 -30.458971 
L 370.798512 -32.143239 
L 373.244685 -34.989889 
L 375.690859 -31.834852 
L 378.137032 -29.628698 
L 380.583205 -34.041006 
L 383.029378 -34.989889 
L 385.475551 -31.194355 
L 387.921725 -32.356738 
L 390.367898 -32.878623 
L 392.814071 -32.356738 
L 395.260244 -28.561204 
L 397.706418 -31.407854 
L 400.152591 -30.031973 
L 402.598764 -31.92974 
L 405.044937 -26.236439 
L 407.49111 -26.236439 
L 409.937284 -27.61232 
L 412.383457 -31.194355 
L 414.82963 -30.031973 
L 417.275803 -28.347705 
L 419.721977 -28.466315 
L 422.16815 -27.185323 
L 424.614323 -29.296588 
L 427.060496 -31.92974 
L 429.50667 -30.245472 
L 431.952843 -29.296588 
L 434.399016 -30.245472 
L 436.845189 -30.031973 
L 439.291362 -33.305621 
L 441.737536 -28.347705 
L 444.183709 -34.041006 
L 446.629882 -34.989889 
L 449.076055 -31.407854 
L 451.522229 -32.878623 
L 453.968402 -32.356738 
L 456.414575 -34.989889 
L 458.860748 -33.827507 
L 461.306922 -32.04835 
L 463.753095 -36.674157 
L 466.199268 -32.356738 
L 468.645441 -31.92974 
L 471.091614 -31.194355 
L 473.537788 -32.878623 
L 475.983961 -28.039318 
L 478.430134 -29.510087 
L 480.876307 -32.143239 
L 483.322481 -33.305621 
L 485.768654 -31.194355 
L 488.214827 -31.621353 
L 490.661 -28.347705 
L 493.107174 -33.827507 
L 495.553347 -28.347705 
L 495.553347 -55.011331 
L 495.553347 -55.011331 
L 493.107174 -53.540561 
L 490.661 -56.600711 
L 488.214827 -53.75406 
L 485.768654 -55.960214 
L 483.322481 -58.593366 
L 480.876307 -58.284979 
L 478.430134 -56.909098 
L 475.983961 -55.438328 
L 473.537788 -58.07148 
L 471.091614 -57.336095 
L 468.645441 -56.387212 
L 466.199268 -58.284979 
L 463.753095 -56.387212 
L 461.306922 -61.131629 
L 458.860748 -55.224829 
L 456.414575 -56.600711 
L 453.968402 -59.850636 
L 451.522229 -55.224829 
L 449.076055 -53.75406 
L 446.629882 -54.489445 
L 444.183709 -54.275946 
L 441.737536 -53.327062 
L 439.291362 -54.275946 
L 436.845189 -52.378179 
L 434.399016 -52.16468 
L 431.952843 -50.693911 
L 429.50667 -50.480412 
L 427.060496 -52.805177 
L 424.614323 -50.693911 
L 422.16815 -49.009643 
L 419.721977 -57.122596 
L 417.275803 -57.336095 
L 414.82963 -50.90741 
L 412.383457 -57.430984 
L 409.937284 -51.429296 
L 407.49111 -52.378179 
L 405.044937 -52.805177 
L 402.598764 -52.805177 
L 400.152591 -55.438328 
L 397.706418 -53.113564 
L 395.260244 -53.327062 
L 392.814071 -55.960214 
L 390.367898 -56.695599 
L 387.921725 -55.651827 
L 385.475551 -57.336095 
L 383.029378 -54.489445 
L 380.583205 -58.806865 
L 378.137032 -56.173713 
L 375.690859 -54.489445 
L 373.244685 -56.387212 
L 370.798512 -56.387212 
L 368.352339 -60.372522 
L 365.906166 -56.387212 
L 363.459992 -57.336095 
L 361.013819 -52.591678 
L 358.567646 -49.745027 
L 356.121473 -58.806865 
L 353.675299 -55.438328 
L 351.229126 -55.438328 
z
" style="stroke: #808080; stroke-opacity: 0.2"/>
    </defs>
    <g clip-path="url(#pd299b8df53)">
     <use xlink:href="#mf2e55dd5f8" x="0" y="65.99952" style="fill: #808080; fill-opacity: 0.2; stroke: #808080; stroke-opacity: 0.2"/>
    </g>
   </g>
   <g id="PolyCollection_4">
    <defs>
     <path id="m3e57dea411" d="M 28.33426 -53.327062 
L 28.33426 -30.980856 
L 30.780433 -30.458971 
L 33.226606 -30.458971 
L 35.67278 -37.623041 
L 38.118953 -28.347705 
L 40.565126 -29.510087 
L 43.011299 -34.041006 
L 45.457472 -28.561204 
L 47.903646 -31.92974 
L 50.349819 -29.723586 
L 52.795992 -31.194355 
L 55.242165 -29.510087 
L 57.688339 -25.501054 
L 60.134512 -31.194355 
L 62.580685 -28.988201 
L 65.026858 -30.245472 
L 67.473032 -29.08309 
L 69.919205 -29.08309 
L 72.365378 -26.35505 
L 74.811551 -27.398821 
L 77.257724 -26.141551 
L 79.703898 -28.561204 
L 82.150071 -31.92974 
L 84.596244 -29.08309 
L 87.042417 -29.296588 
L 89.488591 -33.092122 
L 91.934764 -34.041006 
L 94.380937 -28.561204 
L 96.82711 -28.774702 
L 99.273284 -34.041006 
L 101.719457 -34.041006 
L 104.16563 -29.510087 
L 106.611803 -32.878623 
L 109.057976 -36.674157 
L 111.50415 -34.041006 
L 113.950323 -31.621353 
L 116.396496 -33.305621 
L 118.842669 -33.092122 
L 121.288843 -30.980856 
L 123.735016 -32.783735 
L 126.181189 -32.143239 
L 128.627362 -33.092122 
L 131.073536 -25.928052 
L 133.519709 -35.203388 
L 135.965882 -31.194355 
L 138.412055 -30.672469 
L 140.858228 -28.774702 
L 143.304402 -32.143239 
L 145.750575 -26.141551 
L 148.196748 -31.194355 
L 150.642921 -33.827507 
L 153.089095 -33.092122 
L 155.535268 -28.774702 
L 157.981441 -31.92974 
L 160.427614 -28.988201 
L 162.873787 -32.143239 
L 165.319961 -32.143239 
L 167.766134 -30.245472 
L 170.212307 -29.296588 
L 172.65848 -28.988201 
L 175.104654 -30.245472 
L 177.550827 -31.194355 
L 179.997 -30.245472 
L 182.443173 -29.510087 
L 184.889347 -32.878623 
L 187.33552 -30.458971 
L 189.781693 -32.143239 
L 192.227866 -32.143239 
L 194.674039 -31.92974 
L 197.120213 -31.407854 
L 199.566386 -29.296588 
L 202.012559 -30.980856 
L 204.458732 -36.674157 
L 206.904906 -29.296588 
L 209.351079 -34.041006 
L 211.797252 -31.92974 
L 214.243425 -33.827507 
L 216.689599 -34.989889 
L 219.135772 -30.980856 
L 221.581945 -32.356738 
L 224.028118 -30.672469 
L 226.474291 -30.245472 
L 228.920465 -31.194355 
L 231.366638 -29.08309 
L 233.812811 -23.508399 
L 236.258984 -30.245472 
L 238.705158 -25.928052 
L 241.151331 -26.876935 
L 243.597504 -27.61232 
L 246.043677 -30.458971 
L 248.489851 -28.347705 
L 250.936024 -30.245472 
L 253.382197 -29.08309 
L 255.82837 -31.92974 
L 258.274543 -30.980856 
L 260.720717 -30.031973 
L 263.16689 -30.245472 
L 265.613063 -31.92974 
L 268.059236 -34.989889 
L 270.50541 -30.980856 
L 272.951583 -30.980856 
L 275.397756 -30.458971 
L 277.843929 -26.449938 
L 280.290103 -32.356738 
L 282.736276 -34.254505 
L 285.182449 -30.458971 
L 287.628622 -26.876935 
L 290.074795 -32.143239 
L 292.520969 -34.254505 
L 294.967142 -33.827507 
L 297.413315 -30.980856 
L 299.859488 -34.041006 
L 302.305662 -31.194355 
L 304.751835 -35.938773 
L 307.198008 -33.092122 
L 309.644181 -30.458971 
L 312.090355 -32.570236 
L 314.536528 -31.407854 
L 316.982701 -34.041006 
L 319.428874 -30.245472 
L 321.875047 -30.672469 
L 324.321221 -31.194355 
L 326.767394 -32.143239 
L 329.213567 -30.980856 
L 331.65974 -30.245472 
L 334.105914 -25.714553 
L 336.552087 -32.356738 
L 338.99826 -30.458971 
L 341.444433 -29.296588 
L 343.890607 -28.774702 
L 346.33678 -26.141551 
L 348.782953 -28.039318 
L 348.782953 -55.224829 
L 348.782953 -55.224829 
L 346.33678 -53.63545 
L 343.890607 -57.336095 
L 341.444433 -50.90741 
L 338.99826 -55.438328 
L 336.552087 -54.489445 
L 334.105914 -54.275946 
L 331.65974 -52.591678 
L 329.213567 -52.805177 
L 326.767394 -58.379867 
L 324.321221 -60.79952 
L 321.875047 -55.438328 
L 319.428874 -60.586021 
L 316.982701 -57.122596 
L 314.536528 -60.064135 
L 312.090355 -52.900065 
L 309.644181 -56.173713 
L 307.198008 -56.600711 
L 304.751835 -54.275946 
L 302.305662 -57.336095 
L 299.859488 -55.224829 
L 297.413315 -58.379867 
L 294.967142 -55.533217 
L 292.520969 -54.489445 
L 290.074795 -54.489445 
L 287.628622 -53.75406 
L 285.182449 -56.387212 
L 282.736276 -60.91813 
L 280.290103 -54.275946 
L 277.843929 -54.489445 
L 275.397756 -57.122596 
L 272.951583 -54.489445 
L 270.50541 -56.695599 
L 268.059236 -52.378179 
L 265.613063 -50.693911 
L 263.16689 -53.75406 
L 260.720717 -59.542249 
L 258.274543 -55.011331 
L 255.82837 -54.489445 
L 253.382197 -51.642794 
L 250.936024 -52.591678 
L 248.489851 -51.642794 
L 246.043677 -53.113564 
L 243.597504 -55.011331 
L 241.151331 -51.215797 
L 238.705158 -53.540561 
L 236.258984 -51.524184 
L 233.812811 -52.805177 
L 231.366638 -50.693911 
L 228.920465 -52.591678 
L 226.474291 -54.489445 
L 224.028118 -54.702944 
L 221.581945 -57.549594 
L 219.135772 -51.642794 
L 216.689599 -56.387212 
L 214.243425 -53.75406 
L 211.797252 -55.651827 
L 209.351079 -58.284979 
L 206.904906 -54.489445 
L 204.458732 -57.122596 
L 202.012559 -60.064135 
L 199.566386 -53.75406 
L 197.120213 -53.75406 
L 194.674039 -55.651827 
L 192.227866 -52.805177 
L 189.781693 -57.122596 
L 187.33552 -52.805177 
L 184.889347 -50.693911 
L 182.443173 -56.909098 
L 179.997 -55.224829 
L 177.550827 -61.961902 
L 175.104654 -51.856293 
L 172.65848 -55.438328 
L 170.212307 -51.856293 
L 167.766134 -54.489445 
L 165.319961 -57.644482 
L 162.873787 -51.642794 
L 160.427614 -52.591678 
L 157.981441 -56.695599 
L 155.535268 -55.011331 
L 153.089095 -52.591678 
L 150.642921 -53.75406 
L 148.196748 -55.438328 
L 145.750575 -60.704632 
L 143.304402 -55.438328 
L 140.858228 -55.438328 
L 138.412055 -58.166368 
L 135.965882 -58.07148 
L 133.519709 -52.805177 
L 131.073536 -54.702944 
L 128.627362 -61.867014 
L 126.181189 -60.91813 
L 123.735016 -56.387212 
L 121.288843 -55.438328 
L 118.842669 -55.651827 
L 116.396496 -58.498477 
L 113.950323 -59.969247 
L 111.50415 -58.284979 
L 109.057976 -57.122596 
L 106.611803 -55.533217 
L 104.16563 -56.909098 
L 101.719457 -59.542249 
L 99.273284 -53.75406 
L 96.82711 -59.755748 
L 94.380937 -52.591678 
L 91.934764 -55.651827 
L 89.488591 -55.224829 
L 87.042417 -54.702944 
L 84.596244 -50.90741 
L 82.150071 -50.90741 
L 79.703898 -49.745027 
L 77.257724 -54.584333 
L 74.811551 -50.90741 
L 72.365378 -50.90741 
L 69.919205 -56.387212 
L 67.473032 -50.480412 
L 65.026858 -49.531529 
L 62.580685 -49.745027 
L 60.134512 -50.480412 
L 57.688339 -51.951181 
L 55.242165 -52.591678 
L 52.795992 -53.75406 
L 50.349819 -52.686566 
L 47.903646 -55.224829 
L 45.457472 -54.797832 
L 43.011299 -54.702944 
L 40.565126 -54.275946 
L 38.118953 -53.540561 
L 35.67278 -53.75406 
L 33.226606 -56.387212 
L 30.780433 -54.702944 
L 28.33426 -53.327062 
z
" style="stroke: #808080; stroke-opacity: 0.2"/>
    </defs>
    <g clip-path="url(#pd299b8df53)">
     <use xlink:href="#m3e57dea411" x="0" y="65.99952" style="fill: #808080; fill-opacity: 0.2; stroke: #808080; stroke-opacity: 0.2"/>
    </g>
   </g>
   <g id="PathCollection_1">
    <defs>
     <path id="m391ca1b105" d="M -0.866025 0.866025 
L 0.866025 -0.866025 
M -0.866025 -0.866025 
L 0.866025 0.866025 
" style="stroke: #648fff; stroke-opacity: 0.8; stroke-width: 1.5"/>
    </defs>
    <g clip-path="url(#pd299b8df53)">
     <use xlink:href="#m391ca1b105" x="351.229126" y="25.529829" style="fill: #648fff; fill-opacity: 0.8; stroke: #648fff; stroke-opacity: 0.8; stroke-width: 1.5"/>
     <use xlink:href="#m391ca1b105" x="353.675299" y="22.683178" style="fill: #648fff; fill-opacity: 0.8; stroke: #648fff; stroke-opacity: 0.8; stroke-width: 1.5"/>
     <use xlink:href="#m391ca1b105" x="356.121473" y="17.938761" style="fill: #648fff; fill-opacity: 0.8; stroke: #648fff; stroke-opacity: 0.8; stroke-width: 1.5"/>
     <use xlink:href="#m391ca1b105" x="358.567646" y="26.478712" style="fill: #648fff; fill-opacity: 0.8; stroke: #648fff; stroke-opacity: 0.8; stroke-width: 1.5"/>
     <use xlink:href="#m391ca1b105" x="361.013819" y="25.529829" style="fill: #648fff; fill-opacity: 0.8; stroke: #648fff; stroke-opacity: 0.8; stroke-width: 1.5"/>
     <use xlink:href="#m391ca1b105" x="363.459992" y="20.785411" style="fill: #648fff; fill-opacity: 0.8; stroke: #648fff; stroke-opacity: 0.8; stroke-width: 1.5"/>
     <use xlink:href="#m391ca1b105" x="365.906166" y="26.478712" style="fill: #648fff; fill-opacity: 0.8; stroke: #648fff; stroke-opacity: 0.8; stroke-width: 1.5"/>
     <use xlink:href="#m391ca1b105" x="368.352339" y="16.989877" style="fill: #648fff; fill-opacity: 0.8; stroke: #648fff; stroke-opacity: 0.8; stroke-width: 1.5"/>
     <use xlink:href="#m391ca1b105" x="370.798512" y="19.836528" style="fill: #648fff; fill-opacity: 0.8; stroke: #648fff; stroke-opacity: 0.8; stroke-width: 1.5"/>
     <use xlink:href="#m391ca1b105" x="373.244685" y="13.194343" style="fill: #648fff; fill-opacity: 0.8; stroke: #648fff; stroke-opacity: 0.8; stroke-width: 1.5"/>
     <use xlink:href="#m391ca1b105" x="375.690859" y="21.734295" style="fill: #648fff; fill-opacity: 0.8; stroke: #648fff; stroke-opacity: 0.8; stroke-width: 1.5"/>
     <use xlink:href="#m391ca1b105" x="378.137032" y="23.632062" style="fill: #648fff; fill-opacity: 0.8; stroke: #648fff; stroke-opacity: 0.8; stroke-width: 1.5"/>
     <use xlink:href="#m391ca1b105" x="380.583205" y="20.785411" style="fill: #648fff; fill-opacity: 0.8; stroke: #648fff; stroke-opacity: 0.8; stroke-width: 1.5"/>
     <use xlink:href="#m391ca1b105" x="383.029378" y="16.989877" style="fill: #648fff; fill-opacity: 0.8; stroke: #648fff; stroke-opacity: 0.8; stroke-width: 1.5"/>
     <use xlink:href="#m391ca1b105" x="385.475551" y="12.24546" style="fill: #648fff; fill-opacity: 0.8; stroke: #648fff; stroke-opacity: 0.8; stroke-width: 1.5"/>
     <use xlink:href="#m391ca1b105" x="387.921725" y="13.194343" style="fill: #648fff; fill-opacity: 0.8; stroke: #648fff; stroke-opacity: 0.8; stroke-width: 1.5"/>
     <use xlink:href="#m391ca1b105" x="390.367898" y="15.09211" style="fill: #648fff; fill-opacity: 0.8; stroke: #648fff; stroke-opacity: 0.8; stroke-width: 1.5"/>
     <use xlink:href="#m391ca1b105" x="392.814071" y="20.785411" style="fill: #648fff; fill-opacity: 0.8; stroke: #648fff; stroke-opacity: 0.8; stroke-width: 1.5"/>
     <use xlink:href="#m391ca1b105" x="395.260244" y="16.989877" style="fill: #648fff; fill-opacity: 0.8; stroke: #648fff; stroke-opacity: 0.8; stroke-width: 1.5"/>
     <use xlink:href="#m391ca1b105" x="397.706418" y="26.478712" style="fill: #648fff; fill-opacity: 0.8; stroke: #648fff; stroke-opacity: 0.8; stroke-width: 1.5"/>
     <use xlink:href="#m391ca1b105" x="400.152591" y="30.274246" style="fill: #648fff; fill-opacity: 0.8; stroke: #648fff; stroke-opacity: 0.8; stroke-width: 1.5"/>
     <use xlink:href="#m391ca1b105" x="402.598764" y="35.967547" style="fill: #648fff; fill-opacity: 0.8; stroke: #648fff; stroke-opacity: 0.8; stroke-width: 1.5"/>
     <use xlink:href="#m391ca1b105" x="405.044937" y="26.478712" style="fill: #648fff; fill-opacity: 0.8; stroke: #648fff; stroke-opacity: 0.8; stroke-width: 1.5"/>
     <use xlink:href="#m391ca1b105" x="407.49111" y="35.967547" style="fill: #648fff; fill-opacity: 0.8; stroke: #648fff; stroke-opacity: 0.8; stroke-width: 1.5"/>
     <use xlink:href="#m391ca1b105" x="409.937284" y="23.632062" style="fill: #648fff; fill-opacity: 0.8; stroke: #648fff; stroke-opacity: 0.8; stroke-width: 1.5"/>
     <use xlink:href="#m391ca1b105" x="412.383457" y="24.580945" style="fill: #648fff; fill-opacity: 0.8; stroke: #648fff; stroke-opacity: 0.8; stroke-width: 1.5"/>
     <use xlink:href="#m391ca1b105" x="414.82963" y="19.836528" style="fill: #648fff; fill-opacity: 0.8; stroke: #648fff; stroke-opacity: 0.8; stroke-width: 1.5"/>
     <use xlink:href="#m391ca1b105" x="417.275803" y="22.683178" style="fill: #648fff; fill-opacity: 0.8; stroke: #648fff; stroke-opacity: 0.8; stroke-width: 1.5"/>
     <use xlink:href="#m391ca1b105" x="419.721977" y="22.683178" style="fill: #648fff; fill-opacity: 0.8; stroke: #648fff; stroke-opacity: 0.8; stroke-width: 1.5"/>
     <use xlink:href="#m391ca1b105" x="422.16815" y="27.427596" style="fill: #648fff; fill-opacity: 0.8; stroke: #648fff; stroke-opacity: 0.8; stroke-width: 1.5"/>
     <use xlink:href="#m391ca1b105" x="424.614323" y="26.478712" style="fill: #648fff; fill-opacity: 0.8; stroke: #648fff; stroke-opacity: 0.8; stroke-width: 1.5"/>
     <use xlink:href="#m391ca1b105" x="427.060496" y="21.734295" style="fill: #648fff; fill-opacity: 0.8; stroke: #648fff; stroke-opacity: 0.8; stroke-width: 1.5"/>
     <use xlink:href="#m391ca1b105" x="429.50667" y="25.529829" style="fill: #648fff; fill-opacity: 0.8; stroke: #648fff; stroke-opacity: 0.8; stroke-width: 1.5"/>
     <use xlink:href="#m391ca1b105" x="431.952843" y="16.989877" style="fill: #648fff; fill-opacity: 0.8; stroke: #648fff; stroke-opacity: 0.8; stroke-width: 1.5"/>
     <use xlink:href="#m391ca1b105" x="434.399016" y="16.040994" style="fill: #648fff; fill-opacity: 0.8; stroke: #648fff; stroke-opacity: 0.8; stroke-width: 1.5"/>
     <use xlink:href="#m391ca1b105" x="436.845189" y="16.989877" style="fill: #648fff; fill-opacity: 0.8; stroke: #648fff; stroke-opacity: 0.8; stroke-width: 1.5"/>
     <use xlink:href="#m391ca1b105" x="439.291362" y="24.580945" style="fill: #648fff; fill-opacity: 0.8; stroke: #648fff; stroke-opacity: 0.8; stroke-width: 1.5"/>
     <use xlink:href="#m391ca1b105" x="441.737536" y="17.938761" style="fill: #648fff; fill-opacity: 0.8; stroke: #648fff; stroke-opacity: 0.8; stroke-width: 1.5"/>
     <use xlink:href="#m391ca1b105" x="444.183709" y="23.632062" style="fill: #648fff; fill-opacity: 0.8; stroke: #648fff; stroke-opacity: 0.8; stroke-width: 1.5"/>
     <use xlink:href="#m391ca1b105" x="446.629882" y="23.632062" style="fill: #648fff; fill-opacity: 0.8; stroke: #648fff; stroke-opacity: 0.8; stroke-width: 1.5"/>
     <use xlink:href="#m391ca1b105" x="449.076055" y="15.09211" style="fill: #648fff; fill-opacity: 0.8; stroke: #648fff; stroke-opacity: 0.8; stroke-width: 1.5"/>
     <use xlink:href="#m391ca1b105" x="451.522229" y="22.683178" style="fill: #648fff; fill-opacity: 0.8; stroke: #648fff; stroke-opacity: 0.8; stroke-width: 1.5"/>
     <use xlink:href="#m391ca1b105" x="453.968402" y="26.478712" style="fill: #648fff; fill-opacity: 0.8; stroke: #648fff; stroke-opacity: 0.8; stroke-width: 1.5"/>
     <use xlink:href="#m391ca1b105" x="456.414575" y="17.938761" style="fill: #648fff; fill-opacity: 0.8; stroke: #648fff; stroke-opacity: 0.8; stroke-width: 1.5"/>
     <use xlink:href="#m391ca1b105" x="458.860748" y="21.734295" style="fill: #648fff; fill-opacity: 0.8; stroke: #648fff; stroke-opacity: 0.8; stroke-width: 1.5"/>
     <use xlink:href="#m391ca1b105" x="461.306922" y="19.836528" style="fill: #648fff; fill-opacity: 0.8; stroke: #648fff; stroke-opacity: 0.8; stroke-width: 1.5"/>
     <use xlink:href="#m391ca1b105" x="463.753095" y="20.785411" style="fill: #648fff; fill-opacity: 0.8; stroke: #648fff; stroke-opacity: 0.8; stroke-width: 1.5"/>
     <use xlink:href="#m391ca1b105" x="466.199268" y="21.734295" style="fill: #648fff; fill-opacity: 0.8; stroke: #648fff; stroke-opacity: 0.8; stroke-width: 1.5"/>
     <use xlink:href="#m391ca1b105" x="468.645441" y="11.296576" style="fill: #648fff; fill-opacity: 0.8; stroke: #648fff; stroke-opacity: 0.8; stroke-width: 1.5"/>
     <use xlink:href="#m391ca1b105" x="471.091614" y="16.040994" style="fill: #648fff; fill-opacity: 0.8; stroke: #648fff; stroke-opacity: 0.8; stroke-width: 1.5"/>
     <use xlink:href="#m391ca1b105" x="473.537788" y="32.172013" style="fill: #648fff; fill-opacity: 0.8; stroke: #648fff; stroke-opacity: 0.8; stroke-width: 1.5"/>
     <use xlink:href="#m391ca1b105" x="475.983961" y="21.734295" style="fill: #648fff; fill-opacity: 0.8; stroke: #648fff; stroke-opacity: 0.8; stroke-width: 1.5"/>
     <use xlink:href="#m391ca1b105" x="478.430134" y="27.427596" style="fill: #648fff; fill-opacity: 0.8; stroke: #648fff; stroke-opacity: 0.8; stroke-width: 1.5"/>
     <use xlink:href="#m391ca1b105" x="480.876307" y="32.172013" style="fill: #648fff; fill-opacity: 0.8; stroke: #648fff; stroke-opacity: 0.8; stroke-width: 1.5"/>
     <use xlink:href="#m391ca1b105" x="483.322481" y="28.376479" style="fill: #648fff; fill-opacity: 0.8; stroke: #648fff; stroke-opacity: 0.8; stroke-width: 1.5"/>
     <use xlink:href="#m391ca1b105" x="485.768654" y="19.836528" style="fill: #648fff; fill-opacity: 0.8; stroke: #648fff; stroke-opacity: 0.8; stroke-width: 1.5"/>
     <use xlink:href="#m391ca1b105" x="488.214827" y="14.143227" style="fill: #648fff; fill-opacity: 0.8; stroke: #648fff; stroke-opacity: 0.8; stroke-width: 1.5"/>
     <use xlink:href="#m391ca1b105" x="490.661" y="20.785411" style="fill: #648fff; fill-opacity: 0.8; stroke: #648fff; stroke-opacity: 0.8; stroke-width: 1.5"/>
     <use xlink:href="#m391ca1b105" x="493.107174" y="23.632062" style="fill: #648fff; fill-opacity: 0.8; stroke: #648fff; stroke-opacity: 0.8; stroke-width: 1.5"/>
     <use xlink:href="#m391ca1b105" x="495.553347" y="14.143227" style="fill: #648fff; fill-opacity: 0.8; stroke: #648fff; stroke-opacity: 0.8; stroke-width: 1.5"/>
    </g>
   </g>
   <g id="PathCollection_2">
    <defs>
     <path id="m208c37c324" d="M 0 0.866025 
C 0.229673 0.866025 0.449969 0.774776 0.612372 0.612372 
C 0.774776 0.449969 0.866025 0.229673 0.866025 0 
C 0.866025 -0.229673 0.774776 -0.449969 0.612372 -0.612372 
C 0.449969 -0.774776 0.229673 -0.866025 0 -0.866025 
C -0.229673 -0.866025 -0.449969 -0.774776 -0.612372 -0.612372 
C -0.774776 -0.449969 -0.866025 -0.229673 -0.866025 0 
C -0.866025 0.229673 -0.774776 0.449969 -0.612372 0.612372 
C -0.449969 0.774776 -0.229673 0.866025 0 0.866025 
z
" style="stroke: #648fff; stroke-opacity: 0.8"/>
    </defs>
    <g clip-path="url(#pd299b8df53)">
     <use xlink:href="#m208c37c324" x="28.33426" y="22.683178" style="fill: #648fff; fill-opacity: 0.8; stroke: #648fff; stroke-opacity: 0.8"/>
     <use xlink:href="#m208c37c324" x="30.780433" y="19.836528" style="fill: #648fff; fill-opacity: 0.8; stroke: #648fff; stroke-opacity: 0.8"/>
     <use xlink:href="#m208c37c324" x="33.226606" y="13.194343" style="fill: #648fff; fill-opacity: 0.8; stroke: #648fff; stroke-opacity: 0.8"/>
     <use xlink:href="#m208c37c324" x="35.67278" y="11.296576" style="fill: #648fff; fill-opacity: 0.8; stroke: #648fff; stroke-opacity: 0.8"/>
     <use xlink:href="#m208c37c324" x="38.118953" y="35.967547" style="fill: #648fff; fill-opacity: 0.8; stroke: #648fff; stroke-opacity: 0.8"/>
     <use xlink:href="#m208c37c324" x="40.565126" y="36.91643" style="fill: #648fff; fill-opacity: 0.8; stroke: #648fff; stroke-opacity: 0.8"/>
     <use xlink:href="#m208c37c324" x="43.011299" y="32.172013" style="fill: #648fff; fill-opacity: 0.8; stroke: #648fff; stroke-opacity: 0.8"/>
     <use xlink:href="#m208c37c324" x="45.457472" y="20.785411" style="fill: #648fff; fill-opacity: 0.8; stroke: #648fff; stroke-opacity: 0.8"/>
     <use xlink:href="#m208c37c324" x="47.903646" y="19.836528" style="fill: #648fff; fill-opacity: 0.8; stroke: #648fff; stroke-opacity: 0.8"/>
     <use xlink:href="#m208c37c324" x="50.349819" y="26.478712" style="fill: #648fff; fill-opacity: 0.8; stroke: #648fff; stroke-opacity: 0.8"/>
     <use xlink:href="#m208c37c324" x="52.795992" y="21.734295" style="fill: #648fff; fill-opacity: 0.8; stroke: #648fff; stroke-opacity: 0.8"/>
     <use xlink:href="#m208c37c324" x="55.242165" y="32.172013" style="fill: #648fff; fill-opacity: 0.8; stroke: #648fff; stroke-opacity: 0.8"/>
     <use xlink:href="#m208c37c324" x="57.688339" y="34.06978" style="fill: #648fff; fill-opacity: 0.8; stroke: #648fff; stroke-opacity: 0.8"/>
     <use xlink:href="#m208c37c324" x="60.134512" y="21.734295" style="fill: #648fff; fill-opacity: 0.8; stroke: #648fff; stroke-opacity: 0.8"/>
     <use xlink:href="#m208c37c324" x="62.580685" y="38.814197" style="fill: #648fff; fill-opacity: 0.8; stroke: #648fff; stroke-opacity: 0.8"/>
     <use xlink:href="#m208c37c324" x="65.026858" y="30.274246" style="fill: #648fff; fill-opacity: 0.8; stroke: #648fff; stroke-opacity: 0.8"/>
     <use xlink:href="#m208c37c324" x="67.473032" y="28.376479" style="fill: #648fff; fill-opacity: 0.8; stroke: #648fff; stroke-opacity: 0.8"/>
     <use xlink:href="#m208c37c324" x="69.919205" y="30.274246" style="fill: #648fff; fill-opacity: 0.8; stroke: #648fff; stroke-opacity: 0.8"/>
     <use xlink:href="#m208c37c324" x="72.365378" y="26.478712" style="fill: #648fff; fill-opacity: 0.8; stroke: #648fff; stroke-opacity: 0.8"/>
     <use xlink:href="#m208c37c324" x="74.811551" y="32.172013" style="fill: #648fff; fill-opacity: 0.8; stroke: #648fff; stroke-opacity: 0.8"/>
     <use xlink:href="#m208c37c324" x="77.257724" y="32.172013" style="fill: #648fff; fill-opacity: 0.8; stroke: #648fff; stroke-opacity: 0.8"/>
     <use xlink:href="#m208c37c324" x="79.703898" y="26.478712" style="fill: #648fff; fill-opacity: 0.8; stroke: #648fff; stroke-opacity: 0.8"/>
     <use xlink:href="#m208c37c324" x="82.150071" y="27.427596" style="fill: #648fff; fill-opacity: 0.8; stroke: #648fff; stroke-opacity: 0.8"/>
     <use xlink:href="#m208c37c324" x="84.596244" y="23.632062" style="fill: #648fff; fill-opacity: 0.8; stroke: #648fff; stroke-opacity: 0.8"/>
     <use xlink:href="#m208c37c324" x="87.042417" y="21.734295" style="fill: #648fff; fill-opacity: 0.8; stroke: #648fff; stroke-opacity: 0.8"/>
     <use xlink:href="#m208c37c324" x="89.488591" y="28.376479" style="fill: #648fff; fill-opacity: 0.8; stroke: #648fff; stroke-opacity: 0.8"/>
     <use xlink:href="#m208c37c324" x="91.934764" y="26.478712" style="fill: #648fff; fill-opacity: 0.8; stroke: #648fff; stroke-opacity: 0.8"/>
     <use xlink:href="#m208c37c324" x="94.380937" y="33.120897" style="fill: #648fff; fill-opacity: 0.8; stroke: #648fff; stroke-opacity: 0.8"/>
     <use xlink:href="#m208c37c324" x="96.82711" y="30.274246" style="fill: #648fff; fill-opacity: 0.8; stroke: #648fff; stroke-opacity: 0.8"/>
     <use xlink:href="#m208c37c324" x="99.273284" y="23.632062" style="fill: #648fff; fill-opacity: 0.8; stroke: #648fff; stroke-opacity: 0.8"/>
     <use xlink:href="#m208c37c324" x="101.719457" y="21.734295" style="fill: #648fff; fill-opacity: 0.8; stroke: #648fff; stroke-opacity: 0.8"/>
     <use xlink:href="#m208c37c324" x="104.16563" y="22.683178" style="fill: #648fff; fill-opacity: 0.8; stroke: #648fff; stroke-opacity: 0.8"/>
     <use xlink:href="#m208c37c324" x="106.611803" y="30.274246" style="fill: #648fff; fill-opacity: 0.8; stroke: #648fff; stroke-opacity: 0.8"/>
     <use xlink:href="#m208c37c324" x="109.057976" y="22.683178" style="fill: #648fff; fill-opacity: 0.8; stroke: #648fff; stroke-opacity: 0.8"/>
     <use xlink:href="#m208c37c324" x="111.50415" y="24.580945" style="fill: #648fff; fill-opacity: 0.8; stroke: #648fff; stroke-opacity: 0.8"/>
     <use xlink:href="#m208c37c324" x="113.950323" y="15.09211" style="fill: #648fff; fill-opacity: 0.8; stroke: #648fff; stroke-opacity: 0.8"/>
     <use xlink:href="#m208c37c324" x="116.396496" y="20.785411" style="fill: #648fff; fill-opacity: 0.8; stroke: #648fff; stroke-opacity: 0.8"/>
     <use xlink:href="#m208c37c324" x="118.842669" y="16.040994" style="fill: #648fff; fill-opacity: 0.8; stroke: #648fff; stroke-opacity: 0.8"/>
     <use xlink:href="#m208c37c324" x="121.288843" y="12.24546" style="fill: #648fff; fill-opacity: 0.8; stroke: #648fff; stroke-opacity: 0.8"/>
     <use xlink:href="#m208c37c324" x="123.735016" y="4.654392" style="fill: #648fff; fill-opacity: 0.8; stroke: #648fff; stroke-opacity: 0.8"/>
     <use xlink:href="#m208c37c324" x="126.181189" y="35.967547" style="fill: #648fff; fill-opacity: 0.8; stroke: #648fff; stroke-opacity: 0.8"/>
     <use xlink:href="#m208c37c324" x="128.627362" y="32.172013" style="fill: #648fff; fill-opacity: 0.8; stroke: #648fff; stroke-opacity: 0.8"/>
     <use xlink:href="#m208c37c324" x="131.073536" y="24.580945" style="fill: #648fff; fill-opacity: 0.8; stroke: #648fff; stroke-opacity: 0.8"/>
     <use xlink:href="#m208c37c324" x="133.519709" y="21.734295" style="fill: #648fff; fill-opacity: 0.8; stroke: #648fff; stroke-opacity: 0.8"/>
     <use xlink:href="#m208c37c324" x="135.965882" y="19.836528" style="fill: #648fff; fill-opacity: 0.8; stroke: #648fff; stroke-opacity: 0.8"/>
     <use xlink:href="#m208c37c324" x="138.412055" y="23.632062" style="fill: #648fff; fill-opacity: 0.8; stroke: #648fff; stroke-opacity: 0.8"/>
     <use xlink:href="#m208c37c324" x="140.858228" y="19.836528" style="fill: #648fff; fill-opacity: 0.8; stroke: #648fff; stroke-opacity: 0.8"/>
     <use xlink:href="#m208c37c324" x="143.304402" y="30.274246" style="fill: #648fff; fill-opacity: 0.8; stroke: #648fff; stroke-opacity: 0.8"/>
     <use xlink:href="#m208c37c324" x="145.750575" y="20.785411" style="fill: #648fff; fill-opacity: 0.8; stroke: #648fff; stroke-opacity: 0.8"/>
     <use xlink:href="#m208c37c324" x="148.196748" y="17.938761" style="fill: #648fff; fill-opacity: 0.8; stroke: #648fff; stroke-opacity: 0.8"/>
     <use xlink:href="#m208c37c324" x="150.642921" y="30.274246" style="fill: #648fff; fill-opacity: 0.8; stroke: #648fff; stroke-opacity: 0.8"/>
     <use xlink:href="#m208c37c324" x="153.089095" y="22.683178" style="fill: #648fff; fill-opacity: 0.8; stroke: #648fff; stroke-opacity: 0.8"/>
     <use xlink:href="#m208c37c324" x="155.535268" y="24.580945" style="fill: #648fff; fill-opacity: 0.8; stroke: #648fff; stroke-opacity: 0.8"/>
     <use xlink:href="#m208c37c324" x="157.981441" y="19.836528" style="fill: #648fff; fill-opacity: 0.8; stroke: #648fff; stroke-opacity: 0.8"/>
     <use xlink:href="#m208c37c324" x="160.427614" y="22.683178" style="fill: #648fff; fill-opacity: 0.8; stroke: #648fff; stroke-opacity: 0.8"/>
     <use xlink:href="#m208c37c324" x="162.873787" y="26.478712" style="fill: #648fff; fill-opacity: 0.8; stroke: #648fff; stroke-opacity: 0.8"/>
     <use xlink:href="#m208c37c324" x="165.319961" y="22.683178" style="fill: #648fff; fill-opacity: 0.8; stroke: #648fff; stroke-opacity: 0.8"/>
     <use xlink:href="#m208c37c324" x="167.766134" y="27.427596" style="fill: #648fff; fill-opacity: 0.8; stroke: #648fff; stroke-opacity: 0.8"/>
     <use xlink:href="#m208c37c324" x="170.212307" y="21.734295" style="fill: #648fff; fill-opacity: 0.8; stroke: #648fff; stroke-opacity: 0.8"/>
     <use xlink:href="#m208c37c324" x="172.65848" y="15.09211" style="fill: #648fff; fill-opacity: 0.8; stroke: #648fff; stroke-opacity: 0.8"/>
     <use xlink:href="#m208c37c324" x="175.104654" y="27.427596" style="fill: #648fff; fill-opacity: 0.8; stroke: #648fff; stroke-opacity: 0.8"/>
     <use xlink:href="#m208c37c324" x="177.550827" y="21.734295" style="fill: #648fff; fill-opacity: 0.8; stroke: #648fff; stroke-opacity: 0.8"/>
     <use xlink:href="#m208c37c324" x="179.997" y="26.478712" style="fill: #648fff; fill-opacity: 0.8; stroke: #648fff; stroke-opacity: 0.8"/>
     <use xlink:href="#m208c37c324" x="182.443173" y="35.018664" style="fill: #648fff; fill-opacity: 0.8; stroke: #648fff; stroke-opacity: 0.8"/>
     <use xlink:href="#m208c37c324" x="184.889347" y="29.325363" style="fill: #648fff; fill-opacity: 0.8; stroke: #648fff; stroke-opacity: 0.8"/>
     <use xlink:href="#m208c37c324" x="187.33552" y="25.529829" style="fill: #648fff; fill-opacity: 0.8; stroke: #648fff; stroke-opacity: 0.8"/>
     <use xlink:href="#m208c37c324" x="189.781693" y="27.427596" style="fill: #648fff; fill-opacity: 0.8; stroke: #648fff; stroke-opacity: 0.8"/>
     <use xlink:href="#m208c37c324" x="192.227866" y="23.632062" style="fill: #648fff; fill-opacity: 0.8; stroke: #648fff; stroke-opacity: 0.8"/>
     <use xlink:href="#m208c37c324" x="194.674039" y="22.683178" style="fill: #648fff; fill-opacity: 0.8; stroke: #648fff; stroke-opacity: 0.8"/>
     <use xlink:href="#m208c37c324" x="197.120213" y="23.632062" style="fill: #648fff; fill-opacity: 0.8; stroke: #648fff; stroke-opacity: 0.8"/>
     <use xlink:href="#m208c37c324" x="199.566386" y="24.580945" style="fill: #648fff; fill-opacity: 0.8; stroke: #648fff; stroke-opacity: 0.8"/>
     <use xlink:href="#m208c37c324" x="202.012559" y="10.347693" style="fill: #648fff; fill-opacity: 0.8; stroke: #648fff; stroke-opacity: 0.8"/>
     <use xlink:href="#m208c37c324" x="204.458732" y="12.24546" style="fill: #648fff; fill-opacity: 0.8; stroke: #648fff; stroke-opacity: 0.8"/>
     <use xlink:href="#m208c37c324" x="206.904906" y="9.398809" style="fill: #648fff; fill-opacity: 0.8; stroke: #648fff; stroke-opacity: 0.8"/>
     <use xlink:href="#m208c37c324" x="209.351079" y="19.836528" style="fill: #648fff; fill-opacity: 0.8; stroke: #648fff; stroke-opacity: 0.8"/>
     <use xlink:href="#m208c37c324" x="211.797252" y="11.296576" style="fill: #648fff; fill-opacity: 0.8; stroke: #648fff; stroke-opacity: 0.8"/>
     <use xlink:href="#m208c37c324" x="214.243425" y="7.501043" style="fill: #648fff; fill-opacity: 0.8; stroke: #648fff; stroke-opacity: 0.8"/>
     <use xlink:href="#m208c37c324" x="216.689599" y="10.347693" style="fill: #648fff; fill-opacity: 0.8; stroke: #648fff; stroke-opacity: 0.8"/>
     <use xlink:href="#m208c37c324" x="219.135772" y="26.478712" style="fill: #648fff; fill-opacity: 0.8; stroke: #648fff; stroke-opacity: 0.8"/>
     <use xlink:href="#m208c37c324" x="221.581945" y="17.938761" style="fill: #648fff; fill-opacity: 0.8; stroke: #648fff; stroke-opacity: 0.8"/>
     <use xlink:href="#m208c37c324" x="224.028118" y="22.683178" style="fill: #648fff; fill-opacity: 0.8; stroke: #648fff; stroke-opacity: 0.8"/>
     <use xlink:href="#m208c37c324" x="226.474291" y="32.172013" style="fill: #648fff; fill-opacity: 0.8; stroke: #648fff; stroke-opacity: 0.8"/>
     <use xlink:href="#m208c37c324" x="228.920465" y="24.580945" style="fill: #648fff; fill-opacity: 0.8; stroke: #648fff; stroke-opacity: 0.8"/>
     <use xlink:href="#m208c37c324" x="231.366638" y="33.120897" style="fill: #648fff; fill-opacity: 0.8; stroke: #648fff; stroke-opacity: 0.8"/>
     <use xlink:href="#m208c37c324" x="233.812811" y="24.580945" style="fill: #648fff; fill-opacity: 0.8; stroke: #648fff; stroke-opacity: 0.8"/>
     <use xlink:href="#m208c37c324" x="236.258984" y="28.376479" style="fill: #648fff; fill-opacity: 0.8; stroke: #648fff; stroke-opacity: 0.8"/>
     <use xlink:href="#m208c37c324" x="238.705158" y="18.887644" style="fill: #648fff; fill-opacity: 0.8; stroke: #648fff; stroke-opacity: 0.8"/>
     <use xlink:href="#m208c37c324" x="241.151331" y="31.22313" style="fill: #648fff; fill-opacity: 0.8; stroke: #648fff; stroke-opacity: 0.8"/>
     <use xlink:href="#m208c37c324" x="243.597504" y="28.376479" style="fill: #648fff; fill-opacity: 0.8; stroke: #648fff; stroke-opacity: 0.8"/>
     <use xlink:href="#m208c37c324" x="246.043677" y="18.887644" style="fill: #648fff; fill-opacity: 0.8; stroke: #648fff; stroke-opacity: 0.8"/>
     <use xlink:href="#m208c37c324" x="248.489851" y="20.785411" style="fill: #648fff; fill-opacity: 0.8; stroke: #648fff; stroke-opacity: 0.8"/>
     <use xlink:href="#m208c37c324" x="250.936024" y="21.734295" style="fill: #648fff; fill-opacity: 0.8; stroke: #648fff; stroke-opacity: 0.8"/>
     <use xlink:href="#m208c37c324" x="253.382197" y="16.989877" style="fill: #648fff; fill-opacity: 0.8; stroke: #648fff; stroke-opacity: 0.8"/>
     <use xlink:href="#m208c37c324" x="255.82837" y="27.427596" style="fill: #648fff; fill-opacity: 0.8; stroke: #648fff; stroke-opacity: 0.8"/>
     <use xlink:href="#m208c37c324" x="258.274543" y="19.836528" style="fill: #648fff; fill-opacity: 0.8; stroke: #648fff; stroke-opacity: 0.8"/>
     <use xlink:href="#m208c37c324" x="260.720717" y="20.785411" style="fill: #648fff; fill-opacity: 0.8; stroke: #648fff; stroke-opacity: 0.8"/>
     <use xlink:href="#m208c37c324" x="263.16689" y="27.427596" style="fill: #648fff; fill-opacity: 0.8; stroke: #648fff; stroke-opacity: 0.8"/>
     <use xlink:href="#m208c37c324" x="265.613063" y="18.887644" style="fill: #648fff; fill-opacity: 0.8; stroke: #648fff; stroke-opacity: 0.8"/>
     <use xlink:href="#m208c37c324" x="268.059236" y="16.989877" style="fill: #648fff; fill-opacity: 0.8; stroke: #648fff; stroke-opacity: 0.8"/>
     <use xlink:href="#m208c37c324" x="270.50541" y="20.785411" style="fill: #648fff; fill-opacity: 0.8; stroke: #648fff; stroke-opacity: 0.8"/>
     <use xlink:href="#m208c37c324" x="272.951583" y="23.632062" style="fill: #648fff; fill-opacity: 0.8; stroke: #648fff; stroke-opacity: 0.8"/>
     <use xlink:href="#m208c37c324" x="275.397756" y="25.529829" style="fill: #648fff; fill-opacity: 0.8; stroke: #648fff; stroke-opacity: 0.8"/>
     <use xlink:href="#m208c37c324" x="277.843929" y="12.24546" style="fill: #648fff; fill-opacity: 0.8; stroke: #648fff; stroke-opacity: 0.8"/>
     <use xlink:href="#m208c37c324" x="280.290103" y="16.040994" style="fill: #648fff; fill-opacity: 0.8; stroke: #648fff; stroke-opacity: 0.8"/>
     <use xlink:href="#m208c37c324" x="282.736276" y="24.580945" style="fill: #648fff; fill-opacity: 0.8; stroke: #648fff; stroke-opacity: 0.8"/>
     <use xlink:href="#m208c37c324" x="285.182449" y="13.194343" style="fill: #648fff; fill-opacity: 0.8; stroke: #648fff; stroke-opacity: 0.8"/>
     <use xlink:href="#m208c37c324" x="287.628622" y="9.398809" style="fill: #648fff; fill-opacity: 0.8; stroke: #648fff; stroke-opacity: 0.8"/>
     <use xlink:href="#m208c37c324" x="290.074795" y="16.040994" style="fill: #648fff; fill-opacity: 0.8; stroke: #648fff; stroke-opacity: 0.8"/>
     <use xlink:href="#m208c37c324" x="292.520969" y="30.274246" style="fill: #648fff; fill-opacity: 0.8; stroke: #648fff; stroke-opacity: 0.8"/>
     <use xlink:href="#m208c37c324" x="294.967142" y="30.274246" style="fill: #648fff; fill-opacity: 0.8; stroke: #648fff; stroke-opacity: 0.8"/>
     <use xlink:href="#m208c37c324" x="297.413315" y="26.478712" style="fill: #648fff; fill-opacity: 0.8; stroke: #648fff; stroke-opacity: 0.8"/>
     <use xlink:href="#m208c37c324" x="299.859488" y="17.938761" style="fill: #648fff; fill-opacity: 0.8; stroke: #648fff; stroke-opacity: 0.8"/>
     <use xlink:href="#m208c37c324" x="302.305662" y="19.836528" style="fill: #648fff; fill-opacity: 0.8; stroke: #648fff; stroke-opacity: 0.8"/>
     <use xlink:href="#m208c37c324" x="304.751835" y="21.734295" style="fill: #648fff; fill-opacity: 0.8; stroke: #648fff; stroke-opacity: 0.8"/>
     <use xlink:href="#m208c37c324" x="307.198008" y="10.347693" style="fill: #648fff; fill-opacity: 0.8; stroke: #648fff; stroke-opacity: 0.8"/>
     <use xlink:href="#m208c37c324" x="309.644181" y="20.785411" style="fill: #648fff; fill-opacity: 0.8; stroke: #648fff; stroke-opacity: 0.8"/>
     <use xlink:href="#m208c37c324" x="312.090355" y="24.580945" style="fill: #648fff; fill-opacity: 0.8; stroke: #648fff; stroke-opacity: 0.8"/>
     <use xlink:href="#m208c37c324" x="314.536528" y="21.734295" style="fill: #648fff; fill-opacity: 0.8; stroke: #648fff; stroke-opacity: 0.8"/>
     <use xlink:href="#m208c37c324" x="316.982701" y="18.887644" style="fill: #648fff; fill-opacity: 0.8; stroke: #648fff; stroke-opacity: 0.8"/>
     <use xlink:href="#m208c37c324" x="319.428874" y="31.22313" style="fill: #648fff; fill-opacity: 0.8; stroke: #648fff; stroke-opacity: 0.8"/>
     <use xlink:href="#m208c37c324" x="321.875047" y="27.427596" style="fill: #648fff; fill-opacity: 0.8; stroke: #648fff; stroke-opacity: 0.8"/>
     <use xlink:href="#m208c37c324" x="324.321221" y="17.938761" style="fill: #648fff; fill-opacity: 0.8; stroke: #648fff; stroke-opacity: 0.8"/>
     <use xlink:href="#m208c37c324" x="326.767394" y="26.478712" style="fill: #648fff; fill-opacity: 0.8; stroke: #648fff; stroke-opacity: 0.8"/>
     <use xlink:href="#m208c37c324" x="329.213567" y="21.734295" style="fill: #648fff; fill-opacity: 0.8; stroke: #648fff; stroke-opacity: 0.8"/>
     <use xlink:href="#m208c37c324" x="331.65974" y="21.734295" style="fill: #648fff; fill-opacity: 0.8; stroke: #648fff; stroke-opacity: 0.8"/>
     <use xlink:href="#m208c37c324" x="334.105914" y="23.632062" style="fill: #648fff; fill-opacity: 0.8; stroke: #648fff; stroke-opacity: 0.8"/>
     <use xlink:href="#m208c37c324" x="336.552087" y="14.143227" style="fill: #648fff; fill-opacity: 0.8; stroke: #648fff; stroke-opacity: 0.8"/>
     <use xlink:href="#m208c37c324" x="338.99826" y="20.785411" style="fill: #648fff; fill-opacity: 0.8; stroke: #648fff; stroke-opacity: 0.8"/>
     <use xlink:href="#m208c37c324" x="341.444433" y="25.529829" style="fill: #648fff; fill-opacity: 0.8; stroke: #648fff; stroke-opacity: 0.8"/>
     <use xlink:href="#m208c37c324" x="343.890607" y="33.120897" style="fill: #648fff; fill-opacity: 0.8; stroke: #648fff; stroke-opacity: 0.8"/>
     <use xlink:href="#m208c37c324" x="346.33678" y="25.529829" style="fill: #648fff; fill-opacity: 0.8; stroke: #648fff; stroke-opacity: 0.8"/>
     <use xlink:href="#m208c37c324" x="348.782953" y="21.734295" style="fill: #648fff; fill-opacity: 0.8; stroke: #648fff; stroke-opacity: 0.8"/>
    </g>
   </g>
   <g id="line2d_9">
    <path d="M 351.229126 23.576044 
L 353.675299 23.436327 
L 356.121473 23.2485 
L 358.567646 23.016767 
L 361.013819 22.753148 
L 363.459992 22.460848 
L 365.906166 22.1669 
L 368.352339 21.881024 
L 370.798512 21.624389 
L 373.244685 21.416452 
L 375.690859 21.270239 
L 378.137032 21.202841 
L 380.583205 21.221519 
L 383.029378 21.338614 
L 385.475551 21.547514 
L 387.921725 21.845398 
L 390.367898 22.218425 
L 392.814071 22.658129 
L 395.260244 23.139569 
L 397.706418 23.649418 
L 400.152591 24.156571 
L 402.598764 24.642667 
L 405.044937 25.084388 
L 407.49111 25.463794 
L 409.937284 25.768767 
L 412.383457 25.980686 
L 414.82963 26.104908 
L 417.275803 26.134534 
L 419.721977 26.063951 
L 422.16815 25.913405 
L 424.614323 25.688401 
L 427.060496 25.399072 
L 429.50667 25.064748 
L 431.952843 24.692732 
L 434.399016 24.30067 
L 436.845189 23.896854 
L 439.291362 23.495991 
L 441.737536 23.106672 
L 444.183709 22.741813 
L 446.629882 22.401926 
L 449.076055 22.097868 
L 451.522229 21.835083 
L 453.968402 21.612304 
L 456.414575 21.441473 
L 458.860748 21.316969 
L 461.306922 21.239741 
L 463.753095 21.212158 
L 466.199268 21.228807 
L 468.645441 21.285003 
L 471.091614 21.3796 
L 473.537788 21.5027 
L 475.983961 21.649436 
L 478.430134 21.815488 
L 480.876307 21.994294 
L 483.322481 22.182045 
L 485.768654 22.362605 
L 488.214827 22.547306 
L 490.661 22.720151 
L 493.107174 22.880925 
L 495.553347 23.028947 
" clip-path="url(#pd299b8df53)" style="fill: none; stroke-dasharray: 0.7,0.7; stroke-dashoffset: 0; stroke: #000000; stroke-width: 0.7"/>
   </g>
   <g id="line2d_10">
    <path d="M 28.33426 21.161089 
L 33.226606 21.269909 
L 38.118953 21.729724 
L 43.011299 22.488817 
L 60.134512 25.608387 
L 65.026858 26.015507 
L 69.919205 26.061028 
L 74.811551 25.770082 
L 79.703898 25.218738 
L 87.042417 24.130689 
L 96.82711 22.672204 
L 104.16563 21.865469 
L 109.057976 21.505189 
L 113.950323 21.30122 
L 121.288843 21.281191 
L 128.627362 21.579112 
L 138.412055 22.279389 
L 148.196748 22.931786 
L 157.981441 23.320659 
L 167.766134 23.490969 
L 175.104654 23.377175 
L 179.997 23.112519 
L 187.33552 22.424964 
L 197.120213 21.420637 
L 202.012559 21.171342 
L 206.904906 21.235515 
L 211.797252 21.652027 
L 216.689599 22.382706 
L 224.028118 23.816905 
L 231.366638 25.184257 
L 236.258984 25.803231 
L 241.151331 26.074819 
L 246.043677 25.989059 
L 250.936024 25.58845 
L 255.82837 24.966603 
L 275.397756 22.159899 
L 280.290103 21.707956 
L 285.182449 21.406309 
L 292.520969 21.247368 
L 299.859488 21.418457 
L 307.198008 21.860858 
L 321.875047 22.901216 
L 331.65974 23.307063 
L 341.444433 23.487911 
L 348.782953 23.400832 
L 348.782953 23.400832 
" clip-path="url(#pd299b8df53)" style="fill: none; stroke: #000000; stroke-width: 0.7; stroke-linecap: round"/>
   </g>
   <g id="LineCollection_1">
    <path d="M 350.00604 44.413796 
L 350.00604 2.114943 
" clip-path="url(#pd299b8df53)" style="fill: none; stroke: #000000"/>
   </g>
   <g id="patch_3">
    <path d="M 24.665 46.528739 
L 24.665 0 
" style="fill: none; stroke: #262626; stroke-width: 0.5; stroke-linejoin: miter; stroke-linecap: square"/>
   </g>
   <g id="patch_4">
    <path d="M 24.665 46.528739 
L 497.99952 46.528739 
" style="fill: none; stroke: #262626; stroke-width: 0.5; stroke-linejoin: miter; stroke-linecap: square"/>
   </g>
  </g>
 </g>
 <defs>
  <clipPath id="pd299b8df53">
   <rect x="24.665" y="0" width="473.33452" height="46.528739"/>
  </clipPath>
 </defs>
</svg>
